<svg width="33" height="21" viewBox="0 0 33 21" fill="none" xmlns="http://www.w3.org/2000/svg">
<path d="M13.966 8.82251C14.5372 7.90493 14.8634 6.81023 14.8445 5.63656C14.794 2.49585 12.2615 0 9.2179 0H0.720692C0.322699 0 0 0.333053 0 0.743815V20.0297C0 20.4405 0.322699 20.7736 0.720692 20.7736H10.2124C13.7353 20.7736 16.6536 17.8594 16.668 14.2234C16.6768 11.9951 15.6062 10.0195 13.966 8.82251ZM3.72777 3.84738H9.29046C10.2979 3.84738 11.1175 4.69327 11.1175 5.73307C11.1175 6.77279 10.2979 7.61876 9.29046 7.61876H3.72777V3.84738ZM10.2952 16.9262H3.72777V11.4661H9.29046H10.2951C11.7536 11.4661 12.9403 12.6908 12.9403 14.1962C12.9403 15.7015 11.7537 16.9262 10.2952 16.9262Z" fill="#0067FF"/>
<path d="M33 12.8558C33 8.36503 29.5706 4.71162 25.3552 4.71162C21.1398 4.71162 17.7104 8.3651 17.7104 12.8558C17.7104 17.3465 21.1399 21 25.3552 21C27.913 21 30.2898 19.6467 31.713 17.3798C31.8904 17.0972 32.0516 16.8019 32.1946 16.4975C32.2984 16.2766 32.141 16.0194 31.903 16.0188L28.145 16.0092C28.0619 16.009 27.9831 16.044 27.9235 16.1038C27.2139 16.8159 26.3439 17.1525 25.3552 17.1525C23.4876 17.1525 21.9221 15.7109 21.5323 13.789H32.2519C32.6651 13.789 33 13.4434 33 13.0169V12.8558ZM25.3552 8.559C26.723 8.559 27.9286 9.33261 28.6294 10.5014H22.0811C22.7818 9.33261 23.9875 8.559 25.3552 8.559Z" fill="#0067FF"/>
<path d="M28.5318 3.75562H21.7512C21.4349 3.75562 21.1784 3.49092 21.1784 3.1644V1.4088C21.1784 1.08228 21.4349 0.817581 21.7512 0.817581H28.5318C28.8482 0.817581 29.1046 1.08228 29.1046 1.4088V3.1644C29.1046 3.49099 28.8482 3.75562 28.5318 3.75562Z" fill="#0067FF"/>
</svg>
