<svg width="25" height="28" viewBox="0 0 25 28" fill="none" xmlns="http://www.w3.org/2000/svg">
<path d="M2.93182 24.7287H19.1352L18.3614 22.1562C18.4761 22.2588 25 28 25 28V2.8875C24.9227 1.3265 23.6136 0 21.9909 0L2.9375 0.0035C1.31591 0.0035 0 1.33233 0 2.89333V21.84C0 23.4862 1.31364 24.7287 2.93182 24.7287V24.7287ZM14.9182 6.63017L14.8807 6.64417L14.8943 6.63017H14.9182ZM6.24659 8.11067C8.32955 6.55433 10.2602 6.629 10.2602 6.629L10.4159 6.7865C7.86705 7.41067 6.71136 8.57967 6.71136 8.57967C6.82955 8.554 11.9761 5.5055 18.2125 8.65667C18.2125 8.65667 17.0545 7.5635 14.6625 6.8635L14.8739 6.65C15.2045 6.65117 16.9545 6.71417 18.8273 8.12C18.8273 8.12 20.9227 11.795 20.9227 16.31C20.8534 16.2237 19.6227 18.2537 16.4557 18.3237C16.4557 18.3237 15.9193 17.7007 15.5375 17.157C17.3898 16.611 18.083 15.519 18.083 15.519C14.4773 17.85 11.317 17.486 7.53636 15.911C7.50114 15.911 7.48523 15.8947 7.46705 15.876V15.869C7.44886 15.8515 7.43295 15.834 7.39773 15.834H7.32955C7.09773 15.6777 6.94318 15.6007 6.94318 15.6007C6.94318 15.6007 7.63523 16.6927 9.41364 17.2387C8.94659 17.7858 8.48409 18.4077 8.48409 18.4077C5.31818 18.3307 4.16364 16.3007 4.16364 16.3007C4.16364 11.7787 6.24659 8.11067 6.24659 8.11067V8.11067Z" fill="#5C6BC0"/>
<path d="M15.1227 14.8995C15.9307 14.8995 16.5886 14.1995 16.5886 13.3362C16.5886 12.4787 15.9341 11.7787 15.1227 11.7787V11.7822C14.3182 11.7822 13.6591 12.4798 13.6568 13.3432C13.6568 14.1995 14.3148 14.8995 15.1227 14.8995Z" fill="#5C6BC0"/>
<path d="M9.875 14.8995C10.683 14.8995 11.3409 14.1995 11.3409 13.3362C11.3409 12.4787 10.6875 11.7787 9.87954 11.7787L9.875 11.7822C9.06704 11.7822 8.40909 12.4798 8.40909 13.3432C8.40909 14.1995 9.06704 14.8995 9.875 14.8995V14.8995Z" fill="#5C6BC0"/>
</svg>
