<svg width="45" height="45" viewBox="0 0 45 45" fill="none" xmlns="http://www.w3.org/2000/svg">
<path d="M22.5 45C34.9264 45 45 34.9264 45 22.5C45 10.0736 34.9264 0 22.5 0C10.0736 0 0 10.0736 0 22.5C0 34.9264 10.0736 45 22.5 45Z" fill="#1FD260"/>
<path d="M31.635 33.105V33.1069C31.2544 33.1069 31.0181 32.9887 30.6638 32.7806C25.0031 29.3681 18.4163 29.2256 11.91 30.5588C11.5556 30.6506 11.0925 30.795 10.83 30.795C9.94875 30.795 9.39563 30.0956 9.39563 29.3606C9.39563 28.425 9.94875 27.9806 10.6313 27.8363C18.0619 26.1956 25.6556 26.34 32.1319 30.2138C32.685 30.5681 33.0131 30.885 33.0131 31.71C33.0131 32.5313 32.3681 33.105 31.635 33.105Z" fill="#212121"/>
<path d="M34.0781 27.1556H34.0763C33.6038 27.1556 33.2869 26.9475 32.9588 26.775C27.2869 23.4187 18.8344 22.065 11.3119 24.1069C10.8769 24.225 10.6406 24.3431 10.2319 24.3431C9.26064 24.3431 8.47314 23.5537 8.47314 22.5844C8.47314 21.615 8.94564 20.97 9.87939 20.7075C12.4013 19.9987 14.9775 19.4719 18.7519 19.4719C24.6394 19.4719 30.3281 20.9325 34.8113 23.6006C35.5463 24.0356 35.8369 24.6 35.8369 25.3875C35.8275 26.3644 35.0663 27.1556 34.0781 27.1556Z" fill="#212121"/>
<path d="M8.52751 13.1213C11.7206 12.1856 15.2963 11.7431 19.1888 11.7431C25.8113 11.7431 32.7525 13.1213 37.8244 16.08C38.5331 16.4888 38.9944 17.0513 38.9944 18.1294C38.9944 19.3631 37.995 20.2425 36.8906 20.2425L36.8888 20.2406C36.4163 20.2406 36.1256 20.1225 35.7169 19.8863C29.2594 16.0313 17.7075 15.1069 10.2338 17.1938C9.90564 17.2838 9.49689 17.4281 9.06189 17.4281C7.86376 17.4281 6.94876 16.4925 6.94876 15.2869C6.94876 14.055 7.71189 13.3575 8.52751 13.1213Z" fill="#212121"/>
</svg>
