<svg width="30" height="32" viewBox="0 0 30 32" fill="none" xmlns="http://www.w3.org/2000/svg">
<path d="M10.1488 16.5931C7.44337 16.5931 5.25768 18.6515 5.29766 21.1744C5.32431 22.7935 6.27056 24.1993 7.66327 24.9837C7.19015 24.2997 6.91027 23.4901 6.89695 22.6178C6.85696 20.0949 9.04266 18.0365 11.7481 18.0365C12.2812 18.0365 12.7943 18.1181 13.2741 18.2624V13.2104C12.7743 13.1414 12.2612 13.1038 11.7481 13.1038C11.7215 13.1038 11.7015 13.1038 11.6748 13.1038V16.819C11.195 16.6747 10.6819 16.5931 10.1488 16.5931V16.5931Z" fill="#F00044"/>
<path d="M21.8436 1.44342H21.8037H20.4176C20.8174 3.33242 21.9436 4.97666 23.5162 6.09374C22.4833 4.80722 21.857 3.20063 21.8436 1.44342V1.44342Z" fill="#F00044"/>
<path d="M30 9.1312C29.4736 9.1312 28.9671 9.08099 28.4673 8.99313V12.6142C26.6548 12.6142 24.8956 12.2816 23.243 11.6164C22.1768 11.1896 21.1839 10.6437 20.271 9.9847L20.2977 21.1492C20.2843 23.6595 19.2315 26.0129 17.3256 27.789C15.773 29.2324 13.8072 30.1549 11.6748 30.4499C11.175 30.5189 10.6619 30.5566 10.1488 30.5566C7.86986 30.5566 5.69749 29.86 3.93161 28.5734C4.13152 28.7994 4.34476 29.019 4.57799 29.2324C6.49713 31.0147 9.04267 32 11.7548 32C12.2679 32 12.781 31.9623 13.2808 31.8933C15.4132 31.5984 17.379 30.6758 18.9316 29.2324C20.8374 27.4564 21.8903 25.103 21.9036 22.5927L21.8036 11.4281C22.7099 12.0871 23.7028 12.6393 24.7757 13.0598C26.4349 13.7188 28.1941 14.0577 30 14.0577" fill="#F00044"/>
<path d="M4.558 15.8839C6.45715 14.1079 8.9827 13.1226 11.6748 13.1038V11.767C11.1751 11.698 10.6619 11.6603 10.1488 11.6603C7.43005 11.6603 4.87786 12.6456 2.95871 14.4405C1.07289 16.204 -0.00663303 18.6139 3.06693e-05 21.1179C3.06693e-05 23.6407 1.05956 26.0067 2.97204 27.7953C3.27857 28.0777 3.59176 28.3413 3.92495 28.5797C2.41895 26.8916 1.59932 24.7829 1.59265 22.5613C1.59932 20.0573 2.67217 17.6474 4.558 15.8839V15.8839Z" fill="#08FFF9"/>
<path d="M28.4674 8.99314V7.65013H28.454C26.6015 7.65013 24.8956 7.07277 23.5229 6.09375C24.7157 7.57483 26.4616 8.62915 28.4674 8.99314Z" fill="#08FFF9"/>
<path d="M11.4749 27.061C12.108 27.0924 12.7144 27.0108 13.2741 26.8413C15.2066 26.2451 16.5993 24.5507 16.5993 22.555L16.606 15.0869V1.44342H20.4176C20.3176 0.97274 20.2643 0.495784 20.2577 0H15.0067V13.6372L15 21.1053C15 23.101 13.6073 24.7955 11.6748 25.3916C11.1151 25.5674 10.5087 25.649 9.87562 25.6113C9.06931 25.5674 8.31631 25.3414 7.66327 24.9774C8.4829 26.1698 9.88228 26.9794 11.4749 27.061V27.061Z" fill="#08FFF9"/>
<path d="M11.6748 30.4499C13.8072 30.1549 15.773 29.2324 17.3257 27.789C19.2315 26.0129 20.2843 23.6595 20.2977 21.1492L20.271 9.9847C21.1773 10.6437 22.1702 11.1959 23.243 11.6164C24.9023 12.2753 26.6615 12.6142 28.4674 12.6142V8.99314C26.4616 8.62914 24.7157 7.57482 23.5229 6.09374C21.9503 4.97666 20.8174 3.33242 20.4243 1.44342H16.606V15.0806L16.5993 22.5487C16.5993 24.5444 15.2066 26.2389 13.2741 26.8351C12.7144 27.0108 12.108 27.0924 11.4749 27.0547C9.87565 26.9731 8.48294 26.1636 7.6633 24.9774C6.27059 24.1993 5.32434 22.7872 5.29769 21.1681C5.25771 18.6452 7.4434 16.5868 10.1489 16.5868C10.682 16.5868 11.1951 16.6684 11.6748 16.8127V13.0975C8.98271 13.1163 6.45717 14.1016 4.55802 15.8776C2.67219 17.6411 1.59267 20.051 1.59933 22.5487C1.59933 24.7703 2.41897 26.879 3.93163 28.5672C5.70417 29.8537 7.86987 30.5503 10.1489 30.5503C10.662 30.5566 11.1751 30.5189 11.6748 30.4499V30.4499Z" fill="black"/>
</svg>
