<svg width="31" height="31" viewBox="0 0 31 31" fill="none" xmlns="http://www.w3.org/2000/svg">
<g clip-path="url(#clip0)">
<path d="M30.507 5.60661C29.8182 5.91204 29.1032 6.15299 28.3696 6.32743C29.178 5.55922 29.7858 4.59836 30.1287 3.52586C30.2266 3.21968 29.894 2.95492 29.6175 3.11886C28.5969 3.72426 27.4975 4.17843 26.3498 4.46889C26.2832 4.48574 26.2145 4.49429 26.1456 4.49429C25.9365 4.49429 25.7333 4.41666 25.5734 4.27578C24.3523 3.19958 22.7818 2.60687 21.1513 2.60687C20.4458 2.60687 19.7334 2.71684 19.034 2.93376C16.8669 3.6059 15.1948 5.39347 14.6702 7.59893C14.4734 8.42617 14.4201 9.25416 14.5117 10.0599C14.5222 10.1524 14.4785 10.2171 14.4515 10.2474C14.4041 10.3005 14.3369 10.331 14.2672 10.331C14.2594 10.331 14.2514 10.3306 14.2434 10.3298C9.4998 9.88912 5.22221 7.60377 2.19858 3.89485C2.0444 3.70567 1.74873 3.72888 1.62583 3.93967C1.03373 4.95548 0.720822 6.11732 0.720822 7.29956C0.720822 9.11139 1.44874 10.8188 2.71314 12.0636C2.18143 11.9375 1.6668 11.739 1.18874 11.4735C0.957466 11.345 0.672903 11.5101 0.669653 11.7746C0.636549 14.4662 2.21242 16.8613 4.57312 17.9397C4.52558 17.9409 4.47804 17.9414 4.43042 17.9414C4.05622 17.9414 3.67733 17.9053 3.30441 17.834C3.04396 17.7843 2.82515 18.0313 2.90602 18.2838C3.67227 20.6761 5.732 22.4394 8.19686 22.8397C6.15118 24.213 3.76894 24.9373 1.28949 24.9373L0.516526 24.9369C0.27837 24.9369 0.0769457 25.0921 0.016254 25.3228C-0.0435307 25.55 0.0665911 25.7897 0.269678 25.9078C3.06361 27.5338 6.25049 28.3931 9.48718 28.3931C12.3203 28.3931 14.9705 27.8309 17.3642 26.7221C19.5585 25.7056 21.4976 24.2526 23.1276 22.4033C24.646 20.6807 25.8334 18.6921 26.6567 16.4928C27.4414 14.3964 27.8562 12.1595 27.8562 10.0239V9.92215C27.8561 9.57924 28.0112 9.25658 28.2818 9.03694C29.3086 8.20328 30.2027 7.22193 30.9392 6.12019C31.1337 5.82928 30.827 5.46467 30.507 5.60661Z" fill="#76A9EA"/>
</g>
<defs>
<clipPath id="clip0">
<rect width="31" height="31" fill="white"/>
</clipPath>
</defs>
</svg>
