<svg width="29" height="29" viewBox="0 0 29 29" fill="none" xmlns="http://www.w3.org/2000/svg">
<path d="M13.7911 0.016771C6.06982 0.381443 -0.0233561 6.7598 6.73064e-05 14.4273C0.00719922 16.7627 0.575585 18.9669 1.57825 20.9146L0.0388034 28.3268C-0.0444722 28.7278 0.320094 29.0788 0.721649 28.9845L8.04396 27.2637C9.92517 28.1932 12.0382 28.7301 14.2745 28.764C22.1663 28.8835 28.7468 22.6678 28.9928 14.8426C29.2564 6.45456 22.2771 -0.384104 13.7911 0.016771ZM22.5282 22.3461C20.3838 24.4732 17.5326 25.6446 14.5 25.6446C12.7243 25.6446 11.0243 25.2494 9.44692 24.4701L8.42719 23.9662L3.93786 25.0213L4.88284 20.471L4.38046 19.4952C3.56162 17.9045 3.14643 16.1845 3.14643 14.3828C3.14643 11.3746 4.32739 8.54661 6.47179 6.41947C8.59703 4.31141 11.4947 3.12092 14.5002 3.12092C17.5328 3.12099 20.3838 4.2924 22.5282 6.4194C24.6726 8.54647 25.8536 11.3745 25.8537 14.3826C25.8536 17.3639 24.6534 20.2382 22.5282 22.3461Z" fill="#7AD06D"/>
<path d="M21.5371 17.5019L18.7285 16.702C18.3592 16.5968 17.9616 16.7007 17.6925 16.9727L17.0057 17.6668C16.7161 17.9595 16.2766 18.0535 15.8933 17.8997C14.5647 17.3663 11.7698 14.9014 11.0561 13.6685C10.8501 13.3128 10.8842 12.8682 11.137 12.5437L11.7367 11.7742C11.9716 11.4727 12.0212 11.0678 11.8658 10.7193L10.6841 8.06832C10.4011 7.43337 9.58311 7.24853 9.0487 7.69685C8.26482 8.35448 7.33474 9.35382 7.22167 10.4609C7.02233 12.4129 7.86627 14.8735 11.0577 17.828C14.7446 21.2414 17.6971 21.6923 19.6194 21.2304C20.7097 20.9685 21.5811 19.9183 22.131 19.0584C22.5059 18.4721 22.2099 17.6936 21.5371 17.5019Z" fill="#7AD06D"/>
</svg>
